<?xml version="1.0" encoding="UTF-8" standalone="no"?>
<!DOCTYPE svg PUBLIC "-//W3C//DTD SVG 1.1//EN" "http://www.w3.org/Graphics/SVG/1.1/DTD/svg11.dtd">
<svg width="100%" height="100%" viewBox="0 0 737 250" version="1.1" xmlns="http://www.w3.org/2000/svg" xmlns:xlink="http://www.w3.org/1999/xlink" xml:space="preserve" xmlns:serif="http://www.serif.com/" style="fill-rule:evenodd;clip-rule:evenodd;stroke-linecap:round;stroke-linejoin:round;stroke-miterlimit:1.5;">
    <g transform="matrix(1,0,0,1,-49.5594,-324.209)">
        <g>
            <g transform="matrix(1,0,0,1,2.57968,2.30029)">
                <g transform="matrix(0.262375,0,0,0.264331,20.5157,314.029)">
                    <g transform="matrix(1,0,0,1,-15.4755,-133.838)">
                        <path d="M534.436,174.369C601.29,174.786 652.126,248.271 645.7,307.764C640.153,359.111 592.74,391.66 564.427,395.702C563.826,395.788 560.123,396.374 555.476,396.374C552.041,396.374 529.813,397.809 493.48,368.528C478.961,356.827 455.954,335.591 444.212,307.243C416.397,240.092 471.503,173.976 534.436,174.369Z" style="fill:rgb(221,65,36);stroke:rgb(221,65,36);stroke-width:3.8px;"/>
                    </g>
                </g>
                <g transform="matrix(0.338826,0,0,0.36375,-50.8854,244.838)">
                    <g transform="matrix(1,0,0,1,258.586,383.499)">
                        <path d="M576.586,181.993C584.481,184.055 615.049,193.613 616.508,194.219C626.855,198.515 633.633,205.184 651.696,243.338C660.464,261.859 662.299,270.198 662.789,272.268C666.87,289.513 666.739,304.978 666.739,307.243C666.739,328.031 663.53,371.042 625.441,398.576C619.028,403.211 597.763,418.506 555.476,418.506C515.484,418.506 493.874,404.708 485.84,399.027C470.584,388.238 468.392,376.693 466.164,366.775C464.001,357.146 460.122,344.427 462.654,317.298C463.063,312.914 464.465,297.887 472.093,263.071C473.817,255.201 480.698,216.677 519.632,190.209C538.879,177.124 554.482,176.219 576.586,181.993Z" style="fill:rgb(223,239,135);stroke:rgb(223,239,135);stroke-width:2.84px;"/>
                    </g>
                </g>
                <g transform="matrix(0.262375,0,0,0.264331,20.5157,314.029)">
                    <g transform="matrix(1,0,0,1,-190.698,512.451)">
                        <path d="M545.366,144.056C585.794,156.157 688.87,205.359 688.871,307.243C688.87,384.516 627.314,448.262 555.476,418.506C500.931,395.913 463.875,329.858 456.234,255.32C452.265,216.601 456.973,180.1 472.391,158.932C488.333,137.045 513.313,134.463 545.366,144.056Z" style="fill:rgb(114,106,78);stroke:rgb(114,106,78);stroke-width:3.8px;"/>
                    </g>
                </g>
                <g transform="matrix(0.262375,0,0,0.264331,20.5157,314.029)">
                    <g transform="matrix(1.2081,0,0,1.2081,-433.885,46.4254)">
                        <path d="M555.476,195.979C582.085,195.979 616.934,202.759 629.051,223.309C637.418,237.501 633.851,252.263 636.018,268.413C636.864,274.721 640.583,285.229 636.149,306.58C633.817,317.807 630.158,328.287 627.237,340.398C625.59,347.226 625.316,347.143 622.974,359.107C620.569,371.389 616.278,393.898 589.244,400.28C583.125,401.725 571.093,404.336 554.81,404.7C539.073,405.051 527.728,403.866 501.092,397.432C486.634,393.939 468.205,388.052 455.639,362.985C453.599,358.916 444.212,340.189 444.212,307.243C444.212,286.454 447.421,243.443 485.51,215.91C491.923,211.274 513.188,195.979 555.476,195.979Z" style="fill:rgb(155,137,47);stroke:rgb(155,137,47);stroke-width:3.14px;"/>
                    </g>
                </g>
                <g transform="matrix(0.222803,0,0,0.222803,27.9586,323.542)">
                    <g transform="matrix(1.2671,-0.470314,0.445248,1.21751,-428.893,297.237)">
                        <g transform="matrix(0.602276,0,0,0.602276,579.061,185.752)">
                            <path d="M583.096,192.757C617.287,194.976 634.922,204.626 638.202,206.375C656.124,215.931 679.29,243.561 685.268,273.135C688.603,289.637 687.964,304.291 687.822,306.396C686.78,321.831 683.615,367.092 647.539,397.365C639.937,403.744 628.316,409.497 626.546,410.374C618.15,414.531 608.249,418.421 596.823,421.759C587.666,424.435 578.889,425.639 574.489,426.16C571.788,426.48 567.179,427.233 555.953,426.556C540.487,425.623 520.586,421.602 510.332,416.429C503.722,413.095 502.616,412.533 482.608,398.21C471.123,389.989 470.632,390.522 460.985,380.192C443.826,361.818 440.928,350.633 438.252,333.882C435.766,318.323 437.363,310.776 437.496,309.833C439.612,294.828 444.929,282.095 463.689,254.543C465.621,251.705 478.497,232.796 491.651,221.995C504.133,211.745 517.225,203.896 530.482,198.604C537.214,195.917 541.637,194.499 555.416,193.162C569.35,191.81 581.038,192.624 583.096,192.757Z" style="fill:rgb(75,52,47);stroke:rgb(75,52,47);stroke-width:5.64px;"/>
                        </g>
                    </g>
                </g>
                <g transform="matrix(0.275104,0.0341416,-0.0290824,0.237845,10.5873,321.269)">
                    <rect x="294.65" y="358.996" width="656.062" height="26.469" style="fill:rgb(155,137,47);stroke:rgb(155,137,47);stroke-width:3.86px;"/>
                </g>
                <g transform="matrix(0.0501594,-0.0278958,0.119493,0.219376,131.218,341.103)">
                    <rect x="294.65" y="358.996" width="656.062" height="26.469" style="fill:rgb(75,52,47);stroke:rgb(75,52,47);stroke-width:5.53px;"/>
                </g>
                <g transform="matrix(0.0080581,0.0569926,-0.243267,0.0349097,252.495,351.239)">
                    <rect x="294.65" y="358.996" width="656.062" height="26.469" style="fill:rgb(221,65,36);stroke:rgb(221,65,36);stroke-width:5.6px;"/>
                </g>
                <g transform="matrix(-0.0420262,0.0861152,-0.220511,-0.109225,246.525,456.668)">
                    <rect x="294.65" y="358.996" width="656.062" height="26.469" style="fill:rgb(114,106,78);stroke:rgb(114,106,78);stroke-width:5.37px;"/>
                </g>
                <g transform="matrix(0.0758115,0.0580955,-0.148762,0.197031,212.335,356.637)">
                    <rect x="294.65" y="358.996" width="656.062" height="26.469" style="fill:rgb(223,239,135);stroke:rgb(223,239,135);stroke-width:5.33px;"/>
                </g>
                <g transform="matrix(1,0,0,1,-112.391,46.0524)">
                    <g transform="matrix(144,0,0,144,368.619,449.455)">
                        <path d="M0.397,0.012C0.323,0.012 0.259,-0.004 0.205,-0.035C0.151,-0.066 0.109,-0.11 0.08,-0.167C0.051,-0.224 0.036,-0.291 0.036,-0.369C0.036,-0.446 0.051,-0.514 0.082,-0.571C0.113,-0.628 0.156,-0.673 0.211,-0.705C0.266,-0.736 0.331,-0.752 0.404,-0.752C0.466,-0.752 0.521,-0.741 0.57,-0.719C0.618,-0.696 0.657,-0.665 0.688,-0.624C0.719,-0.583 0.738,-0.535 0.745,-0.48L0.574,-0.48C0.563,-0.517 0.543,-0.546 0.513,-0.566C0.482,-0.586 0.445,-0.596 0.4,-0.596C0.36,-0.596 0.326,-0.587 0.297,-0.569C0.268,-0.551 0.245,-0.525 0.23,-0.492C0.215,-0.458 0.207,-0.417 0.207,-0.37C0.207,-0.324 0.215,-0.284 0.231,-0.25C0.246,-0.216 0.269,-0.19 0.298,-0.172C0.327,-0.153 0.361,-0.144 0.4,-0.144C0.445,-0.144 0.484,-0.155 0.516,-0.176C0.547,-0.197 0.568,-0.225 0.578,-0.262L0.746,-0.262C0.737,-0.207 0.717,-0.159 0.686,-0.118C0.654,-0.077 0.613,-0.045 0.564,-0.022C0.515,0.001 0.459,0.012 0.397,0.012Z" style="fill:rgb(155,137,47);fill-rule:nonzero;"/>
                    </g>
                </g>
            </g>
            <g transform="matrix(1,0,0,1,-9.48556,-254.436)">
                <g transform="matrix(144,0,0,144,372.423,752.66)">
                    <path d="M0.031,-0.251C0.031,-0.304 0.043,-0.35 0.067,-0.39C0.09,-0.429 0.123,-0.46 0.165,-0.482C0.206,-0.504 0.254,-0.515 0.307,-0.515C0.36,-0.515 0.408,-0.504 0.449,-0.482C0.49,-0.46 0.523,-0.429 0.547,-0.39C0.57,-0.35 0.582,-0.304 0.582,-0.251C0.582,-0.198 0.57,-0.152 0.547,-0.113C0.523,-0.074 0.49,-0.043 0.449,-0.021C0.408,0.001 0.36,0.012 0.307,0.012C0.254,0.012 0.206,0.001 0.165,-0.021C0.123,-0.043 0.09,-0.074 0.067,-0.113C0.043,-0.152 0.031,-0.198 0.031,-0.251ZM0.186,-0.252C0.186,-0.227 0.191,-0.204 0.202,-0.186C0.212,-0.167 0.226,-0.152 0.244,-0.142C0.262,-0.131 0.283,-0.126 0.307,-0.126C0.331,-0.126 0.352,-0.131 0.37,-0.142C0.388,-0.152 0.402,-0.167 0.412,-0.186C0.422,-0.204 0.427,-0.227 0.427,-0.252C0.427,-0.277 0.422,-0.299 0.412,-0.318C0.402,-0.337 0.388,-0.351 0.37,-0.362C0.352,-0.372 0.331,-0.377 0.307,-0.377C0.283,-0.377 0.262,-0.372 0.244,-0.362C0.226,-0.351 0.212,-0.337 0.202,-0.318C0.191,-0.299 0.186,-0.277 0.186,-0.252Z" style="fill:rgb(155,137,47);fill-rule:nonzero;"/>
                </g>
            </g>
            <g transform="matrix(1,0,0,1,-88.5263,69.2903)">
                <g transform="matrix(144,0,0,144,528.769,430.662)">
                    <path d="M0.2,-0L0.005,-0.5L0.171,-0.5L0.232,-0.325C0.245,-0.288 0.256,-0.256 0.265,-0.227C0.274,-0.198 0.279,-0.177 0.281,-0.166C0.284,-0.181 0.291,-0.203 0.301,-0.232C0.31,-0.261 0.321,-0.292 0.334,-0.325L0.401,-0.5L0.561,-0.5L0.352,-0L0.2,-0Z" style="fill:rgb(155,137,47);fill-rule:nonzero;"/>
                </g>
            </g>
            <g transform="matrix(1,0,0,1,-188.478,20.7946)">
                <g transform="matrix(144,0,0,144,698.655,477.286)">
                    <path d="M0.209,0.013C0.156,0.013 0.115,-0.001 0.084,-0.031C0.053,-0.059 0.037,-0.098 0.037,-0.147C0.037,-0.193 0.053,-0.23 0.085,-0.257C0.116,-0.284 0.162,-0.3 0.222,-0.305L0.362,-0.316L0.362,-0.324C0.362,-0.341 0.359,-0.355 0.352,-0.366C0.345,-0.377 0.336,-0.385 0.324,-0.391C0.311,-0.396 0.296,-0.399 0.277,-0.399C0.244,-0.399 0.22,-0.393 0.203,-0.381C0.186,-0.369 0.177,-0.352 0.177,-0.329L0.049,-0.329C0.049,-0.367 0.059,-0.4 0.078,-0.428C0.097,-0.456 0.125,-0.478 0.161,-0.493C0.196,-0.508 0.238,-0.516 0.285,-0.516C0.334,-0.516 0.375,-0.507 0.409,-0.49C0.442,-0.473 0.468,-0.447 0.486,-0.414C0.503,-0.381 0.512,-0.34 0.512,-0.292L0.512,-0L0.376,-0L0.366,-0.066C0.358,-0.043 0.339,-0.024 0.31,-0.01C0.28,0.006 0.246,0.013 0.209,0.013ZM0.263,-0.101C0.292,-0.101 0.316,-0.108 0.335,-0.123C0.354,-0.137 0.363,-0.158 0.363,-0.187L0.363,-0.214L0.285,-0.207C0.252,-0.204 0.228,-0.199 0.215,-0.191C0.201,-0.182 0.194,-0.17 0.194,-0.154C0.194,-0.136 0.2,-0.123 0.211,-0.114C0.222,-0.105 0.24,-0.101 0.263,-0.101Z" style="fill:rgb(155,137,47);fill-rule:nonzero;"/>
                </g>
            </g>
            <g transform="matrix(1,0,0,1,82.2119,277.993)">
                <g transform="matrix(144,0,0,144,501.447,220.087)">
                    <path d="M0.29,0.013C0.24,0.013 0.196,0.002 0.157,-0.021C0.118,-0.044 0.087,-0.075 0.065,-0.115C0.042,-0.154 0.031,-0.2 0.031,-0.251C0.031,-0.303 0.042,-0.349 0.064,-0.389C0.085,-0.428 0.115,-0.459 0.154,-0.482C0.193,-0.505 0.237,-0.516 0.287,-0.516C0.34,-0.516 0.385,-0.505 0.423,-0.484C0.461,-0.462 0.49,-0.431 0.511,-0.392C0.532,-0.352 0.542,-0.305 0.542,-0.25L0.542,-0.211L0.112,-0.209L0.114,-0.304L0.389,-0.304C0.389,-0.331 0.38,-0.352 0.362,-0.368C0.344,-0.383 0.319,-0.391 0.288,-0.391C0.262,-0.391 0.241,-0.386 0.225,-0.376C0.208,-0.366 0.196,-0.35 0.188,-0.33C0.18,-0.309 0.176,-0.282 0.176,-0.249C0.176,-0.202 0.186,-0.168 0.205,-0.146C0.224,-0.123 0.253,-0.112 0.293,-0.112C0.322,-0.112 0.347,-0.117 0.366,-0.127C0.385,-0.137 0.398,-0.151 0.403,-0.169L0.544,-0.169C0.535,-0.114 0.508,-0.07 0.462,-0.037C0.416,-0.003 0.359,0.013 0.29,0.013Z" style="fill:rgb(155,137,47);fill-rule:nonzero;"/>
                </g>
            </g>
            <g transform="matrix(1,0,0,1,572.951,329.058)">
                <g transform="matrix(144,0,0,144,85.0989,170.895)">
                    <path d="M0.402,-0.5L0.402,-0.355L0.353,-0.355C0.309,-0.355 0.275,-0.344 0.25,-0.323C0.225,-0.302 0.212,-0.266 0.212,-0.217L0.212,-0L0.058,-0L0.058,-0.499L0.203,-0.499L0.215,-0.392L0.201,-0.392C0.208,-0.425 0.223,-0.453 0.247,-0.475C0.27,-0.496 0.302,-0.507 0.343,-0.507C0.352,-0.507 0.362,-0.507 0.372,-0.506C0.381,-0.505 0.391,-0.503 0.402,-0.5Z" style="fill:rgb(155,137,47);fill-rule:nonzero;"/>
                </g>
            </g>
            <g transform="matrix(1,0,0,1,443.034,290.821)">
                <g transform="matrix(144,0,0,144,268.855,207.259)">
                    <path d="M0.209,0.013C0.156,0.013 0.115,-0.001 0.084,-0.031C0.053,-0.059 0.037,-0.098 0.037,-0.147C0.037,-0.193 0.053,-0.23 0.085,-0.257C0.116,-0.284 0.162,-0.3 0.222,-0.305L0.362,-0.316L0.362,-0.324C0.362,-0.341 0.359,-0.355 0.352,-0.366C0.345,-0.377 0.336,-0.385 0.324,-0.391C0.311,-0.396 0.296,-0.399 0.277,-0.399C0.244,-0.399 0.22,-0.393 0.203,-0.381C0.186,-0.369 0.177,-0.352 0.177,-0.329L0.049,-0.329C0.049,-0.367 0.059,-0.4 0.078,-0.428C0.097,-0.456 0.125,-0.478 0.161,-0.493C0.196,-0.508 0.238,-0.516 0.285,-0.516C0.334,-0.516 0.375,-0.507 0.409,-0.49C0.442,-0.473 0.468,-0.447 0.486,-0.414C0.503,-0.381 0.512,-0.34 0.512,-0.292L0.512,-0L0.376,-0L0.366,-0.066C0.358,-0.043 0.339,-0.024 0.31,-0.01C0.28,0.006 0.246,0.013 0.209,0.013ZM0.263,-0.101C0.292,-0.101 0.316,-0.108 0.335,-0.123C0.354,-0.137 0.363,-0.158 0.363,-0.187L0.363,-0.214L0.285,-0.207C0.252,-0.204 0.228,-0.199 0.215,-0.191C0.201,-0.182 0.194,-0.17 0.194,-0.154C0.194,-0.136 0.2,-0.123 0.211,-0.114C0.222,-0.105 0.24,-0.101 0.263,-0.101Z" style="fill:rgb(155,137,47);fill-rule:nonzero;"/>
                </g>
            </g>
        </g>
    </g>
</svg>
