<?xml version="1.0" encoding="UTF-8" standalone="no"?>
<!DOCTYPE svg PUBLIC "-//W3C//DTD SVG 1.1//EN" "http://www.w3.org/Graphics/SVG/1.1/DTD/svg11.dtd">
<svg width="100%" height="100%" viewBox="0 0 1080 1080" version="1.1" xmlns="http://www.w3.org/2000/svg" xmlns:xlink="http://www.w3.org/1999/xlink" xml:space="preserve" xmlns:serif="http://www.serif.com/" style="fill-rule:evenodd;clip-rule:evenodd;stroke-linecap:round;stroke-linejoin:round;stroke-miterlimit:1.5;">
    <g transform="matrix(1.17761,0,0,1.18638,-79.0411,-40.0599)">
        <g transform="matrix(1,0,0,1,-15.4755,-133.838)">
            <path d="M534.436,174.369C601.29,174.786 652.126,248.271 645.7,307.764C640.153,359.111 592.74,391.66 564.427,395.702C563.826,395.788 560.123,396.374 555.476,396.374C552.041,396.374 529.813,397.809 493.48,368.528C478.961,356.827 455.954,335.591 444.212,307.243C416.397,240.092 471.503,173.976 534.436,174.369Z" style="fill:rgb(221,65,36);stroke:rgb(221,65,36);stroke-width:0.85px;"/>
        </g>
    </g>
    <g transform="matrix(1.52074,0,0,1.63261,-399.508,-350.605)">
        <g transform="matrix(1,0,0,1,258.586,383.499)">
            <path d="M576.586,181.993C584.481,184.055 615.049,193.613 616.508,194.219C626.855,198.515 633.633,205.184 651.696,243.338C660.464,261.859 662.299,270.198 662.789,272.268C666.87,289.513 666.739,304.978 666.739,307.243C666.739,328.031 663.53,371.042 625.441,398.576C619.028,403.211 597.763,418.506 555.476,418.506C515.484,418.506 493.874,404.708 485.84,399.027C470.584,388.238 468.392,376.693 466.164,366.775C464.001,357.146 460.122,344.427 462.654,317.298C463.063,312.914 464.465,297.887 472.093,263.071C473.817,255.201 480.698,216.677 519.632,190.209C538.879,177.124 554.482,176.219 576.586,181.993Z" style="fill:rgb(223,239,135);stroke:rgb(223,239,135);stroke-width:0.63px;"/>
        </g>
    </g>
    <g transform="matrix(1.17761,0,0,1.18638,-79.0411,-40.0599)">
        <g transform="matrix(1,0,0,1,-190.698,512.451)">
            <path d="M545.366,144.056C585.794,156.157 688.87,205.359 688.871,307.243C688.87,384.516 627.314,448.262 555.476,418.506C500.931,395.913 463.875,329.858 456.234,255.32C452.265,216.601 456.973,180.1 472.391,158.932C488.333,137.045 513.313,134.463 545.366,144.056Z" style="fill:rgb(114,106,78);stroke:rgb(114,106,78);stroke-width:0.85px;"/>
        </g>
    </g>
    <g transform="matrix(1.17761,0,0,1.18638,-79.0411,-40.0599)">
        <g transform="matrix(1.2081,0,0,1.2081,-433.885,46.4254)">
            <path d="M555.476,195.979C582.085,195.979 616.934,202.759 629.051,223.309C637.418,237.501 633.851,252.263 636.018,268.413C636.864,274.721 640.583,285.229 636.149,306.58C633.817,317.807 630.158,328.287 627.237,340.398C625.59,347.226 625.316,347.143 622.974,359.107C620.569,371.389 616.278,393.898 589.244,400.28C583.125,401.725 571.093,404.336 554.81,404.7C539.073,405.051 527.728,403.866 501.092,397.432C486.634,393.939 468.205,388.052 455.639,362.985C453.599,358.916 444.212,340.189 444.212,307.243C444.212,286.454 447.421,243.443 485.51,215.91C491.923,211.274 513.188,195.979 555.476,195.979Z" style="fill:rgb(155,137,47);stroke:rgb(155,137,47);stroke-width:0.7px;"/>
        </g>
    </g>
    <g transform="matrix(1,0,0,1,-45.6353,2.63875)">
        <g transform="matrix(1.2671,-0.470314,0.445248,1.21751,-428.893,297.237)">
            <g transform="matrix(0.602276,0,0,0.602276,579.061,185.752)">
                <path d="M583.096,192.757C617.287,194.976 634.922,204.626 638.202,206.375C656.124,215.931 679.29,243.561 685.268,273.135C688.603,289.637 687.964,304.291 687.822,306.396C686.78,321.831 683.615,367.092 647.539,397.365C639.937,403.744 628.316,409.497 626.546,410.374C618.15,414.531 608.249,418.421 596.823,421.759C587.666,424.435 578.889,425.639 574.489,426.16C571.788,426.48 567.179,427.233 555.953,426.556C540.487,425.623 520.586,421.602 510.332,416.429C503.722,413.095 502.616,412.533 482.608,398.21C471.123,389.989 470.632,390.522 460.985,380.192C443.826,361.818 440.928,350.633 438.252,333.882C435.766,318.323 437.363,310.776 437.496,309.833C439.612,294.828 444.929,282.095 463.689,254.543C465.621,251.705 478.497,232.796 491.651,221.995C504.133,211.745 517.225,203.896 530.482,198.604C537.214,195.917 541.637,194.499 555.416,193.162C569.35,191.81 581.038,192.624 583.096,192.757Z" style="fill:rgb(75,52,47);stroke:rgb(75,52,47);stroke-width:1.26px;"/>
            </g>
        </g>
    </g>
    <g transform="matrix(1.23474,0.153236,-0.13053,1.06751,-123.602,-7.56485)">
        <rect x="294.65" y="358.996" width="656.062" height="26.469" style="fill:rgb(155,137,47);stroke:rgb(155,137,47);stroke-width:0.86px;"/>
    </g>
    <g transform="matrix(0.225128,-0.125204,0.536318,0.984618,417.821,81.4579)">
        <rect x="294.65" y="358.996" width="656.062" height="26.469" style="fill:rgb(75,52,47);stroke:rgb(75,52,47);stroke-width:1.23px;"/>
    </g>
    <g transform="matrix(0.0361668,0.255798,-1.09184,0.156684,962.141,126.951)">
        <rect x="294.65" y="358.996" width="656.062" height="26.469" style="fill:rgb(221,65,36);stroke:rgb(221,65,36);stroke-width:1.25px;"/>
    </g>
    <g transform="matrix(-0.188625,0.386508,-0.989712,-0.490229,935.349,600.141)">
        <rect x="294.65" y="358.996" width="656.062" height="26.469" style="fill:rgb(114,106,78);stroke:rgb(114,106,78);stroke-width:1.2px;"/>
    </g>
    <g transform="matrix(0.340262,0.260748,-0.667685,0.884328,781.896,151.177)">
        <rect x="294.65" y="358.996" width="656.062" height="26.469" style="fill:rgb(223,239,135);stroke:rgb(223,239,135);stroke-width:1.19px;"/>
    </g>
</svg>
